<svg viewBox="0 0 200 200" height="200" width="200" xmlns="http://www.w3.org/2000/svg" data-type="color">
    <g>
        <path d="M117.468 122.055c-5.837 0-12.299-.015-18.756-.03-8.17-.017-16.323-.038-23.193-.026l-.008-5.5c6.864-.013 15.033.007 23.214.026 8.278.019 16.573.036 23.531.026l.011 5.5c-1.54.003-3.145.004-4.799.004z" fill="#F99410" data-color="1"/>
        <path d="M50.504 122.001L48.016 122c-6.899 0-11.632-3.733-13.326-10.51-1.562-6.251-.365-18.75 2.511-26.227a2.75 2.75 0 0 1 2.566-1.763h7.886c2.583-1.854 4.908-3.695 7.161-5.481C62.276 72.107 68.722 67 78.265 67h21.563c12.275 0 22.95 8.324 31.821 16.664C144.425 85.741 166 93.598 166 102.75v16.5a2.75 2.75 0 0 1-2.75 2.75h-16.499v-5.5H160.5v-13.75c0-3.419-15.08-11.517-30.517-13.78a2.758 2.758 0 0 1-1.494-.725C116.857 77.209 108.285 72.5 99.827 72.5H78.265c-7.628 0-12.834 4.124-20.037 9.83-2.515 1.993-5.117 4.054-8.113 6.167a2.747 2.747 0 0 1-1.584.503h-6.809c-2.198 7.015-2.765 16.883-1.696 21.155 1.082 4.329 3.621 6.345 7.99 6.345l2.491.001-.003 5.5z" fill="#F99410" data-color="1"/>
        <path d="M116.763 94.5H72.765c-.729 0-1.429-.29-1.944-.806l-8.25-8.25 3.888-3.889L73.904 89h42.332l5.01-1.997 2.036 5.111-5.5 2.191a2.76 2.76 0 0 1-1.019.195z" fill="#F99410" data-color="1"/>
        <path d="M134.637 133c-8.34 0-15.124-6.785-15.124-15.125s6.785-15.125 15.124-15.125c8.34 0 15.124 6.785 15.124 15.125S142.977 133 134.637 133zm0-24.75c-5.306 0-9.625 4.318-9.625 9.625s4.318 9.625 9.625 9.625 9.625-4.318 9.625-9.625-4.319-9.625-9.625-9.625z" fill="#F99410" data-color="1"/>
        <path d="M63.141 133c-8.34 0-15.124-6.785-15.124-15.125s6.785-15.125 15.124-15.125 15.124 6.785 15.124 15.125S71.48 133 63.141 133zm0-24.75c-5.306 0-9.625 4.318-9.625 9.625s4.318 9.625 9.625 9.625 9.625-4.318 9.625-9.625-4.319-9.625-9.625-9.625z" fill="#F99410" data-color="1"/>
    </g>
</svg>
